#!OML:ASF E:/inclinewalkrobotboard/Project1/Captureday1/Session1/subject1.ASF
:FULLY-SPECIFIED
:DEGREES
326
root 0 0 0 -3.3682743910366377 -29.618714425174282 0.8021388803450309
lowerback 11.735968065941485 0.463290612975895 1.8790632449453482
upperback 1.9105479964482117 0.7261027114409428 0.8629071140060947
thorax -4.439313614569052 0.32729198075984123 -0.28422789268837007
lowerneck -11.895694190290731 -1.1128588918048283 -3.563728520002063
upperneck 3.1737098625219016 -0.9130172576626143 2.2848474814986446
head 2.9717375204447447 -0.46951540645687895 1.222534425240243
rclavicle -3.0789386228655914E-15 7.567331133298866E-17
rhumerus -7.772395217577314 -1.5117421594458538 -69.87066263213542
rradius 13.931093060291502
rwrist 40.05977967847203
rhand -7.514783924076273 18.382791959865717
rfingers 7.125020000000033
rthumb 18.334984981198765 -11.28600460585912
lclavicle 4.460783931511047E-16 -1.3707185748376597E-16
lhumerus 15.751031939513464 -34.435634955519326 71.78145225025317
lradius 124.83893698018541
lwrist 52.76365500933938
lhand -25.918628850449725 42.654933843446834
lfingers 7.139400718508662
lthumb 0.7611151898808188 53.025713854900005
rfemur -20.575970213671525 4.854529286909746 15.497542067744911
rtibia 49.18160435275314
rfoot -11.089784519646836 -12.83236225432666
rtoes -1.955817291374673
lfemur -24.186527293851803 1.1603949255809143 -11.340359468902616
ltibia 53.04801638901726
lfoot -9.140374558076786 0.8729403207387332
ltoes -9.713815917401096
327
root 0 0 0 -3.375371814736685 -29.640178293903286 0.8156832034591324
lowerback 11.740365080219176 0.4578383359246923 1.8746443709116056
upperback 1.9130193290908264 0.7184808784315023 0.8656548954565064
thorax -4.439051386536363 0.3235410582267534 -0.27831146186534733
lowerneck -11.891444123835207 -1.1083128281611216 -3.5630387734361593
upperneck 3.176799959371392 -0.906755904209052 2.2807580004396124
head 2.971059265123946 -0.4669808434747871 1.2216523302965867
rclavicle -3.0788255602847165E-15 7.618212212334234E-17
rhumerus -7.7457769207266445 -1.527198105453719 -69.85693742731449
rradius 13.94991127575441
rwrist 40.04978722627739
rhand -7.5275081466759435 18.374946995521164
rfingers 7.125020000000033
rthumb 18.322733011836583 -11.29398831981538
lclavicle 4.473120691188323E-16 -1.3745923162942564E-16
lhumerus 15.760894304330861 -34.42690890289272 71.77257867718434
lradius 124.83559506513768
lwrist 52.76670020249113
lhand -25.923181363916115 42.65482221115094
lfingers 7.139400453972469
lthumb 0.7566669386248623 53.02475797464579
rfemur -20.692953063256553 4.825645241480281 15.443480089018884
rtibia 49.28257307345832
rfoot -11.034126590769791 -12.819786867083293
rtoes -1.961716782804761
lfemur -24.194748179932816 1.1621678908730964 -11.339506630146653
ltibia 53.06543806596945
lfoot -9.133476113963605 0.8573948741026429
ltoes -9.723203052732948
328
root 0 0 0 -3.380768722076128 -29.659728492556276 0.8272439215148932
lowerback 11.745097296475027 0.45337949046510906 1.8710195617741283
upperback 1.9155032091868884 0.7122028392717912 0.8679329910124847
thorax -4.438979344880918 0.3204469304359829 -0.273450223469429
lowerneck -11.887435300375085 -1.1046343798073217 -3.5625138675534425
upperneck 3.1778896542757984 -0.9016438102877977 2.2776510694085967
head 2.9699728619840338 -0.46493199040713984 1.221034346808263
rclavicle -3.0789371013085156E-15 7.672016226663928E-17
rhumerus -7.7215854369474535 -1.5412669515807362 -69.84440724878517
rradius 13.966193621194464
rwrist 40.041334159002716
rhand -7.538753021234909 18.368084695366527
rfingers 7.125020000000033
rthumb 18.311916812345856 -11.300997253142963
lclavicle 4.476704775166993E-16 -1.3761649939951602E-16
lhumerus 15.770726604509488 -34.41728791176036 71.76337628598962
lradius 124.8308154341486
lwrist 52.768608753509525
lhand -25.927564969749533 42.65439562668461
lfingers 7.139401363226294
lthumb 0.7523818804638491 53.02407349151968
rfemur -20.788556984776516 4.802841066358452 15.398967380239363
rtibia 49.363844671424054
rfoot -10.988669222656393 -12.809398415211176
rtoes -1.9667237659374401
lfemur -24.215172806032747 1.1649640313315537 -11.335017882657612
ltibia 53.093714094321896
lfoot -9.118563550773771 0.8356141663874963
ltoes -9.73492270266587
329
root 0 0 0 -3.384389702216954 -29.675733518323128 0.8367667129833367
lowerback 11.74955984202776 0.4500304995435341 1.8683435589135111
upperback 1.9178240103993704 0.7074532145815396 0.8696650527881606
thorax -4.438946239291742 0.3181035252819804 -0.26982026606596493
lowerneck -11.883824299739626 -1.101361693335212 -3.5618341655835697
upperneck 3.1782621224986105 -0.8970576144209508 2.2747780203036614
head 2.9688646674379253 -0.4630658911398349 1.2204290588126274
rclavicle -3.0791132814030316E-15 7.719689600592E-17
rhumerus -7.700696783323123 -1.5533245300131728 -69.833568520658
rradius 13.979691231564182
rwrist 40.03444942502679
rhand -7.548226305792102 18.362314995473263
rfingers 7.125020000000033
rthumb 18.30281478820492 -11.306910823558535
lclavicle 4.475640392852319E-16 -1.376335890545776E-16
lhumerus 15.780949219716199 -34.4074288291356 71.75389206584111
lradius 124.8261125895997
lwrist 52.77059623595254
lhand -25.93201884002516 42.654001117970466
lfingers 7.139404002331699
lthumb 0.7480364475417449 53.0234735662427
rfemur -20.85789267611972 4.788098916929038 15.365817432920695
rtibia 49.420209805274325
rfoot -10.957063841759105 -12.801856117146835
rtoes -1.9718331901964756
lfemur -24.24095130362803 1.1671540170098567 -11.328430933323016
ltibia 53.124330066080816
lfoot -9.099146652245732 0.8120065641081311
ltoes -9.746648519598963
330
root 0 0 0 -3.386320330795883 -29.68686473564935 0.8441927558437954
lowerback 11.75319629441802 0.4478117360313885 1.8666886764355468
upperback 1.9197862086811885 0.7042860500014232 0.8708336459097643
thorax -4.4388485803508955 0.31654005338235947 -0.26747875999637877
lowerneck -11.880845163349061 -1.0981949553109374 -3.5607870600515765
upperneck 3.1790081268367203 -0.892598024473366 2.271602091704903
head 2.968082106114876 -0.46118729530450153 1.2196500587004038
rclavicle -3.079220626627627E-15 7.7539685941868E-17
rhumerus -7.683616717182259 -1.5629983158338625 -69.82471639514432
rradius 13.990366856721181
rwrist 40.02906493812632
rhand -7.555799815112785 18.357661674356738
rfingers 7.125020000000033
rthumb 18.295547232003315 -11.311696364181461
lclavicle 4.47299025850152E-16 -1.375950823786024E-16
lhumerus 15.791562585072018 -34.39774830341362 71.74429154980145
lradius 124.82214857653413
lwrist 52.77312885246662
lhand -25.93657895379673 42.65378216257998
lfingers 7.139408394737336
lthumb 0.7435995850352484 53.022867756752845
rfemur -20.89921719455567 4.782019568987971 15.344712602241236
rtibia 49.450039026481114
rfoot -10.940564882304836 -12.79732878866339
rtoes -1.9774039118260558
lfemur -24.26759788192588 1.1678829855304307 -11.320853530694974
ltibia 53.152181451466845
lfoot -9.077723717135168 0.7892920275613298
ltoes -9.757050769047957
331
root 0 0 0 -3.3867702545100657 -29.692261704129756 0.8495587453045428
lowerback 11.755586990929615 0.44665197967775566 1.8660248192843845
upperback 1.9212354287023246 0.7026237588472009 0.8714690138551273
thorax -4.438615104555255 0.3157203523533092 -0.2663652906789463
lowerneck -11.878678819061204 -1.0949485941981583 -3.5592625898531436
upperneck 3.180996172193213 -0.8880239764630171 2.267784146857827
head 2.967898990375186 -0.4591807391515428 1.2185795005741191
rclavicle -3.0791788939338173E-15 7.771413940760932E-17
rhumerus -7.670402957454682 -1.5701654525000048 -69.81792109583087
rradius 13.99851456712431
rwrist 40.02494396301036
rhand -7.561562071092727 18.354008488451417
rfingers 7.125020000000033
rthumb 18.29002603471119 -11.31546332766725
lclavicle 4.470876312357951E-16 -1.375694754860648E-16
lhumerus 15.80254061396527 -34.3883605004048 71.73462975116836
lradius 124.81909024355957
lwrist 52.7763405477884
lhand -25.94126665039546 42.653772805516624
lfingers 7.139414249596338
lthumb 0.7390509254860778 53.02221002797348
rfemur -20.915272107805638 4.783421843322222 15.334623840740717
rtibia 49.456491479368566
rfoot -10.937418515543545 -12.795430534039104
rtoes -1.9831712473742642
lfemur -24.292662847394688 1.1670682800633552 -11.31305399094466
ltibia 53.175221407925875
lfoot -9.056072882404074 0.7688178072984337
ltoes -9.765658735887122
332
root 0 0 0 -3.3860358049040933 -29.691759523681 0.8530665870870698
lowerback 11.756531229754412 0.4464000782783949 1.866220519078113
upperback 1.9221065724574018 0.7022677077190181 0.8716387205609812
thorax -4.438201291158721 0.31554788236255793 -0.26631525849730503
lowerneck -11.877363497853903 -1.0915175973711224 -3.5572462909328286
upperneck 3.1847731025307056 -0.8832044393575531 2.2631756700017247
head 2.9684678138980978 -0.45698982831113066 1.2171717419034018
rclavicle -3.0789686257521918E-15 7.772780645742208E-17
rhumerus -7.660697539504559 -1.5749550014191165 -69.81303663169777
rradius 14.00469015750106
rwrist 40.0217286683051
rhand -7.5657878019940945 18.35113120332223
rfingers 7.125020000000033
rthumb 18.285984306388382 -11.318431898279474
lclavicle 4.470617122757165E-16 -1.3760083281632105E-16
lhumerus 15.813964286451164 -34.37919162693244 71.72482994536685
lradius 124.81693908763492
lwrist 52.78030752185587
lhand -25.946152833188822 42.653974895282666
lfingers 7.1394211580478775
lthumb 0.7343200037086852 53.02146630521331
rfemur -20.912481191511752 4.789809830597458 15.333041780387923
rtibia 49.44642174554042
rfoot -10.943624606093412 -12.795383139654637
rtoes -1.988532708121677
lfemur -24.315000031221263 1.1651231035054987 -11.305578658482478
ltibia 53.19333397665109
lfoot -9.035525948662842 0.7510961448433884
ltoes -9.77252485267297
333
root 0 0 0 -3.38445724664656 -29.685963011584583 0.8550815355998922
lowerback 11.756071720279893 0.44684952509498205 1.8670701740809108
upperback 1.922436345778193 0.7029308166384831 0.8714357076963555
thorax -4.437589589900348 0.31588167028333314 -0.26709102140703506
lowerneck -11.876780155918372 -1.0878588283289088 -3.5548023605414008
upperneck 3.19049724914945 -0.8780903656836401 2.2577991983693586
head 2.96979677783062 -0.45460358159042524 1.2154478626502807
rclavicle -3.078618952508532E-15 7.761898904819184E-17
rhumerus -7.653857504496232 -1.5777122386487203 -69.80975289221458
rradius 14.00954114400799
rwrist 40.01904372624885
rhand -7.568852731305029 18.348772371385884
rfingers 7.125020000000033
rthumb 18.283058518428163 -11.32085852352306
lclavicle 4.47287513327371E-16 -1.377067859785941E-16
lhumerus 15.82595787742568 -34.370152387591894 71.71478842191657
lradius 124.81572184281836
lwrist 52.78513807078554
lhand -25.95132658664377 42.65439694286829
lfingers 7.1394287211345056
lthumb 0.7293180326848709 53.02060553955956
rfemur -20.898883139924457 4.798269025443057 15.336730029299272
rtibia 49.42805458855755
rfoot -10.954391170467394 -12.796285339924477
rtoes -1.9928972528121944
lfemur -24.33407402296354 1.1626063289213229 -11.298833263964188
ltibia 53.20714430827016
lfoot -9.017109898017559 0.73627594005759
ltoes -9.777887762256189
